<svg width="24" height="24" viewBox="0 0 24 24" fill="none" xmlns="http://www.w3.org/2000/svg">
<path d="M18.2376 14.7928C18.7624 14.2681 18.8373 13.5185 18.3876 12.7689C18.0128 12.1692 17.3381 11.8694 16.5885 12.0193C16.2887 12.0942 15.9888 12.2442 15.689 12.469C13.3652 14.0432 10.2168 13.9683 7.89303 12.3941C7.7431 12.3191 7.59318 12.2442 7.44325 12.1692C6.61868 11.7944 5.79412 11.9443 5.34436 12.6939C4.81963 13.4435 4.89458 14.2681 5.56923 14.9428C5.71915 15.0927 5.86907 15.1676 5.94403 15.3176L6.019 15.3925C7.06845 16.2171 8.34279 16.7418 9.99194 16.9667L9.01744 17.9412C8.19287 18.7658 7.29334 19.6653 6.46877 20.4899C6.24389 20.7148 5.94403 21.0896 5.94403 21.6143C5.94403 22.2889 6.31885 22.9636 6.9935 23.2634C7.21838 23.4133 7.44326 23.4133 7.66814 23.4133C8.04295 23.4133 8.49271 23.2634 8.79256 22.8886C9.91697 21.7642 10.8165 20.8647 11.716 19.9651C11.791 19.8902 11.791 19.8902 11.791 19.8902C11.791 19.8902 11.866 19.8902 11.866 19.9651C12.4656 20.6398 13.1403 21.2395 13.74 21.9141C14.0398 22.214 14.3397 22.5138 14.6395 22.8137C15.0143 23.1885 15.3142 23.3384 15.7639 23.3384C16.4386 23.4134 17.1882 22.9636 17.488 22.2889C17.7879 21.6892 17.638 20.9396 17.1132 20.4899C16.3636 19.7403 15.614 18.9157 14.7894 18.1661L13.5151 16.8917C14.1898 16.8168 14.9394 16.6669 15.614 16.367C16.7384 15.9922 17.563 15.4675 18.2376 14.7928Z" fill="white"/>
<path d="M11.791 12.6939C15.0143 12.6939 17.638 10.1452 17.638 6.92191C17.638 5.34773 17.0383 3.84852 15.9138 2.72411C14.7894 1.59969 13.3652 1 11.866 1C8.64264 1 6.09396 3.62363 6.019 6.77199C6.019 8.34618 6.61869 9.77043 7.7431 10.8948C8.79256 12.0942 10.2168 12.6939 11.791 12.6939ZM10.1419 5.19782C10.5916 4.74805 11.1913 4.52316 11.791 4.52316C13.1403 4.52316 14.1148 5.57262 14.1148 6.84696C14.1148 8.19626 13.0653 9.17074 11.791 9.17074C10.4417 9.17074 9.46721 8.1213 9.46721 6.84696C9.46721 6.24727 9.69209 5.64759 10.1419 5.19782Z" fill="white"/>
<path d="M18.2376 14.7928C18.7624 14.2681 18.8373 13.5185 18.3876 12.7689C18.0128 12.1692 17.3381 11.8694 16.5885 12.0193C16.2887 12.0942 15.9888 12.2442 15.689 12.469C13.3652 14.0432 10.2168 13.9683 7.89303 12.3941C7.7431 12.3191 7.59318 12.2442 7.44325 12.1692C6.61868 11.7944 5.79412 11.9443 5.34436 12.6939C4.81963 13.4435 4.89458 14.2681 5.56923 14.9428C5.71915 15.0927 5.86907 15.1676 5.94403 15.3176L6.019 15.3925C7.06845 16.2171 8.34279 16.7418 9.99194 16.9667L9.01744 17.9412C8.19287 18.7658 7.29334 19.6653 6.46877 20.4899C6.24389 20.7148 5.94403 21.0896 5.94403 21.6143C5.94403 22.2889 6.31885 22.9636 6.9935 23.2634C7.21838 23.4133 7.44326 23.4133 7.66814 23.4133C8.04295 23.4133 8.49271 23.2634 8.79256 22.8886C9.91697 21.7642 10.8165 20.8647 11.716 19.9651C11.791 19.8902 11.791 19.8902 11.791 19.8902C11.791 19.8902 11.866 19.8902 11.866 19.9651C12.4656 20.6398 13.1403 21.2395 13.74 21.9141C14.0398 22.214 14.3397 22.5138 14.6395 22.8137C15.0143 23.1885 15.3142 23.3384 15.7639 23.3384C16.4386 23.4134 17.1882 22.9636 17.488 22.2889C17.7879 21.6892 17.638 20.9396 17.1132 20.4899C16.3636 19.7403 15.614 18.9157 14.7894 18.1661L13.5151 16.8917C14.1898 16.8168 14.9394 16.6669 15.614 16.367C16.7384 15.9922 17.563 15.4675 18.2376 14.7928Z" fill="white"/>
</svg>
