<svg width="24" height="24" viewBox="0 0 24 24" fill="none" xmlns="http://www.w3.org/2000/svg">
<path d="M12 2C6.5 2 2 6.5 2 12C2 16.125 4.5 19.625 8 21.125C8 20.375 7.99999 19.625 8.12499 18.875C8.37499 18 9.37499 13.375 9.37499 13.375C9.37499 13.375 9.00001 12.75 9.00001 11.75C9.00001 10.25 9.87501 9.125 10.875 9.125C11.75 9.125 12.25 9.75 12.25 10.625C12.25 11.5 11.625 12.875 11.375 14.125C11.125 15.125 11.875 16 13 16C14.875 16 16.125 13.625 16.125 10.625C16.125 8.375 14.625 6.75 12 6.75C9 6.75 7.12501 9 7.12501 11.5C7.12501 12.375 7.37501 13 7.75001 13.5C7.87501 13.75 8 13.75 7.875 14C7.875 14.125 7.75 14.625 7.625 14.75C7.5 15 7.37501 15.125 7.12501 15C5.75001 14.375 5.125 12.875 5.125 11.125C5.125 8.25 7.5 4.875 12.25 4.875C16.125 4.875 18.625 7.625 18.625 10.625C18.625 14.5 16.5 17.5 13.25 17.5C12.125 17.5 11.125 16.875 10.75 16.25C10.75 16.25 10.125 18.5 9.99999 19C9.74999 19.75 9.37501 20.5 9.00001 21.125C9.87501 21.375 10.875 21.5 11.875 21.5C17.375 21.5 21.875 17 21.875 11.5C22 6.5 17.5 2 12 2Z" fill="white"/>
</svg>
